<svg xmlns="http://www.w3.org/2000/svg" width="1500" height="486" viewBox="0 0 1500 486" role="img">
<title>PAY 기준 업무 Domain 종합 과정</title><desc>하나의 교육 Domain으로 Online·Message·File·Batch·ADM을 연결</desc>
<rect width="100%" height="100%" fill="#f8fafc"/>
<text x="50" y="58" font-family="Arial,sans-serif" font-size="32" font-weight="700" fill="#0f172a">PAY 기준 업무 Domain 종합 과정</text>
<text x="50" y="92" font-family="Arial,sans-serif" font-size="17" fill="#475569">하나의 교육 Domain으로 Online·Message·File·Batch·ADM을 연결</text>
<rect x="50" y="135" width="323" height="171" rx="16" fill="#fff" stroke="#94a3b8" stroke-width="2"/>
<text x="72" y="173" font-family="Arial,sans-serif" font-size="21" font-weight="700" fill="#0f172a">생성</text>
<text x="72" y="210" font-family="Arial,sans-serif" font-size="16" fill="#334155">• Generator Dry Run</text>
<text x="72" y="242" font-family="Arial,sans-serif" font-size="16" fill="#334155">• Manifest·Lock</text>
<text x="72" y="274" font-family="Arial,sans-serif" font-size="16" fill="#334155">• 3 Vendor SQL</text>
<line x1="377" y1="220" x2="400" y2="220" stroke="#334155" stroke-width="3"/>
<polygon points="400,213 400,227 408,220" fill="#334155"/>
<rect x="408" y="135" width="323" height="171" rx="16" fill="#fff" stroke="#94a3b8" stroke-width="2"/>
<text x="430" y="173" font-family="Arial,sans-serif" font-size="21" font-weight="700" fill="#0f172a">온라인</text>
<text x="430" y="210" font-family="Arial,sans-serif" font-size="16" fill="#334155">• 조회·등록</text>
<text x="430" y="242" font-family="Arial,sans-serif" font-size="16" fill="#334155">• Version·Idempotency</text>
<text x="430" y="274" font-family="Arial,sans-serif" font-size="16" fill="#334155">• Audit·Outbox</text>
<line x1="735" y1="220" x2="758" y2="220" stroke="#334155" stroke-width="3"/>
<polygon points="758,213 758,227 766,220" fill="#334155"/>
<rect x="766" y="135" width="323" height="171" rx="16" fill="#fff" stroke="#94a3b8" stroke-width="2"/>
<text x="788" y="173" font-family="Arial,sans-serif" font-size="21" font-weight="700" fill="#0f172a">비동기·연계</text>
<text x="788" y="210" font-family="Arial,sans-serif" font-size="16" fill="#334155">• Kafka/Rabbit/JMS/MQ</text>
<text x="788" y="242" font-family="Arial,sans-serif" font-size="16" fill="#334155">• HTTP/TCP/ISO8583</text>
<text x="788" y="274" font-family="Arial,sans-serif" font-size="16" fill="#334155">• File·SFTP</text>
<line x1="1093" y1="220" x2="1116" y2="220" stroke="#334155" stroke-width="3"/>
<polygon points="1116,213 1116,227 1124,220" fill="#334155"/>
<rect x="1124" y="135" width="323" height="171" rx="16" fill="#fff" stroke="#94a3b8" stroke-width="2"/>
<text x="1146" y="173" font-family="Arial,sans-serif" font-size="21" font-weight="700" fill="#0f172a">운영</text>
<text x="1146" y="210" font-family="Arial,sans-serif" font-size="16" fill="#334155">• ADM·BZA·Gateway</text>
<text x="1146" y="242" font-family="Arial,sans-serif" font-size="16" fill="#334155">• Batch·Recovery</text>
<text x="1146" y="274" font-family="Arial,sans-serif" font-size="16" fill="#334155">• 배포·인계</text>
</svg>
