<svg xmlns="http://www.w3.org/2000/svg" width="1600" height="600" viewBox="0 0 1600 600">
<defs><marker id="arrow" viewBox="0 0 10 10" refX="9" refY="5" markerWidth="7" markerHeight="7" orient="auto-start-reverse"><path d="M0 0L10 5L0 10z" fill="#5A7896"/></marker><linearGradient id="hero" x1="0" y1="0" x2="1" y2="1"><stop offset="0" stop-color="#06101C"/><stop offset="0.58" stop-color="#0B2340"/><stop offset="1" stop-color="#123A5F"/></linearGradient><pattern id="grid" width="48" height="48" patternUnits="userSpaceOnUse"><path d="M48 0H0V48" fill="none" stroke="#15314C" stroke-width="1" opacity=".45"/></pattern><style>text{font-family:'Noto Sans KR','Noto Sans CJK KR',Arial,sans-serif;} .t{fill:#F8FAFC;font-weight:700} .s{fill:#AFC4D9;font-weight:500} .b{fill:#0E2137;stroke:#27415B;stroke-width:2} .a{fill:#2563EB} .c{fill:#0891B2} .w{fill:#D97706} .r{fill:#B91C1C}</style></defs>
<rect width="1600" height="600" fill="#07111F"/><rect width="1600" height="600" fill="url(#hero)"/><rect width="1600" height="600" fill="url(#grid)"/><circle cx="1320" cy="130" r="280" fill="#2563EB" opacity=".08"/><circle cx="1410" cy="420" r="230" fill="#0891B2" opacity=".08"/><text x="88" y="170" font-size="104" class="t" text-anchor="start">CPF</text><text x="92" y="235" font-size="30" class="s" text-anchor="start">CORE PLATFORM FRAMEWORK</text><text x="92" y="335" font-size="38" class="t" text-anchor="start">업무 개발 · 실행 · 연계 · Batch · 운영</text><text x="92" y="395" font-size="52" class="t" text-anchor="start">하나의 계약으로 연결</text><rect x="930" y="260" width="165" height="120" rx="18" fill="#0D2239" stroke="#2563EB" stroke-width="2"/><text x="1012" y="330" font-size="24" class="t" text-anchor="middle">DOMAIN</text><rect x="1120" y="260" width="165" height="120" rx="18" fill="#0D2239" stroke="#0891B2" stroke-width="2"/><text x="1202" y="330" font-size="24" class="t" text-anchor="middle">CONTRACT</text><rect x="1310" y="260" width="165" height="120" rx="18" fill="#0D2239" stroke="#D97706" stroke-width="2"/><text x="1392" y="330" font-size="24" class="t" text-anchor="middle">RUNTIME</text><line x1="1095" y1="320" x2="1120" y2="320" stroke="#6A8BA8" stroke-width="3" marker-end="url(#arrow)"/><line x1="1285" y1="320" x2="1310" y2="320" stroke="#6A8BA8" stroke-width="3" marker-end="url(#arrow)"/><text x="930" y="465" font-size="22" class="s" text-anchor="start">SOURCE → CONSUMER → RUNTIME → EVIDENCE</text></svg>