<svg xmlns="http://www.w3.org/2000/svg" width="1600" height="900" viewBox="0 0 1600 900">
<defs><marker id="arrow" viewBox="0 0 10 10" refX="9" refY="5" markerWidth="7" markerHeight="7" orient="auto-start-reverse"><path d="M0 0L10 5L0 10z" fill="#5A7896"/></marker><linearGradient id="hero" x1="0" y1="0" x2="1" y2="1"><stop offset="0" stop-color="#06101C"/><stop offset="0.58" stop-color="#0B2340"/><stop offset="1" stop-color="#123A5F"/></linearGradient><pattern id="grid" width="48" height="48" patternUnits="userSpaceOnUse"><path d="M48 0H0V48" fill="none" stroke="#15314C" stroke-width="1" opacity=".45"/></pattern><style>text{font-family:'Noto Sans KR','Noto Sans CJK KR',Arial,sans-serif;} .t{fill:#17324D;font-weight:700} .s{fill:#526579;font-weight:500} .b{fill:#FFFFFF;stroke:#C7D3E0;stroke-width:2} .a{fill:#2563EB} .c{fill:#0891B2} .w{fill:#D97706} .r{fill:#B91C1C}</style></defs>
<rect width="1600" height="900" fill="#F7FAFC"/><text x="80" y="80" font-size="42" class="t" text-anchor="start">Failure / UNKNOWN / Reconcile</text><text x="80" y="118" font-size="22" class="s" text-anchor="start">불명확한 원격 결과를 성공·실패로 추측하지 않습니다</text><rect x="90" y="220" width="210" height="95" rx="18" fill="#17324D" stroke="#17324D" stroke-width="2"/><text x="195" y="278" font-size="24" class="t" text-anchor="middle">REQUEST</text><rect x="360" y="220" width="210" height="95" rx="18" fill="#2563EB" stroke="#2563EB" stroke-width="2"/><text x="465" y="278" font-size="24" class="t" text-anchor="middle">LOCAL TX</text><rect x="630" y="220" width="210" height="95" rx="18" fill="#0891B2" stroke="#0891B2" stroke-width="2"/><text x="735" y="278" font-size="24" class="t" text-anchor="middle">REMOTE</text><line x1="300" y1="268" x2="360" y2="268" stroke="#5A7896" stroke-width="3" marker-end="url(#arrow)"/><line x1="570" y1="268" x2="630" y2="268" stroke="#5A7896" stroke-width="3" marker-end="url(#arrow)"/><line x1="840" y1="268" x2="930" y2="268" stroke="#5A7896" stroke-width="3" marker-end="url(#arrow)"/><rect x="930" y="185" width="210" height="75" rx="16" fill="#EAF7EF" stroke="#2F855A" stroke-width="2"/><text x="1035" y="232" font-size="22" class="t" text-anchor="middle">SUCCESS</text><rect x="930" y="300" width="210" height="75" rx="16" fill="#FFF7E9" stroke="#D97706" stroke-width="2"/><text x="1035" y="347" font-size="18" class="t" text-anchor="middle">BUSINESS FAILURE</text><rect x="1200" y="185" width="260" height="75" rx="16" fill="#FEF2F2" stroke="#B91C1C" stroke-width="2"/><text x="1330" y="232" font-size="18" class="t" text-anchor="middle">TECHNICAL FAILURE</text><rect x="1200" y="300" width="260" height="75" rx="16" fill="#F3EEFF" stroke="#7C3AED" stroke-width="2"/><text x="1330" y="347" font-size="22" class="t" text-anchor="middle">UNKNOWN</text><line x1="1330" y1="375" x2="1330" y2="510" stroke="#7C3AED" stroke-width="4" marker-end="url(#arrow)"/><rect x="1110" y="510" width="440" height="100" rx="22" fill="#FFFFFF" stroke="#7C3AED" stroke-width="3"/><text x="1330" y="555" font-size="28" class="t" text-anchor="middle">RECONCILE</text><text x="1330" y="590" font-size="20" class="s" text-anchor="middle">Probe · Evidence · Confirm</text><rect x="120" y="685" width="1360" height="120" rx="22" fill="#F4F7FA" stroke="#BCC9D5" stroke-width="2"/><text x="280" y="735" font-size="22" class="t" text-anchor="middle">Retry</text><text x="280" y="770" font-size="18" class="s" text-anchor="middle">temporary</text><text x="605" y="735" font-size="22" class="t" text-anchor="middle">Idempotency</text><text x="605" y="770" font-size="18" class="s" text-anchor="middle">duplicate</text><text x="930" y="735" font-size="22" class="t" text-anchor="middle">Compensation</text><text x="930" y="770" font-size="18" class="s" text-anchor="middle">confirmed effect</text><text x="1255" y="735" font-size="22" class="t" text-anchor="middle">Manual Review</text><text x="1255" y="770" font-size="18" class="s" text-anchor="middle">unresolved</text></svg>